<?xml version="1.0" encoding="UTF-8"?>
<svg width="20px" height="14px" viewBox="0 0 20 14" version="1.1" xmlns="http://www.w3.org/2000/svg" xmlns:xlink="http://www.w3.org/1999/xlink">
    <!-- Generator: sketchtool 48.1 (47250) - http://www.bohemiancoding.com/sketch -->
    <title>164AC10A-CD7B-44E5-934B-9EF988317050</title>
    <desc>Created with sketchtool.</desc>
    <defs></defs>
    <g id="Manual-Log-in--entered" stroke="none" stroke-width="1" fill="none" fill-rule="evenodd" transform="translate(-615.000000, -403.000000)">
        <g id="Modal" transform="translate(306.000000, 164.000000)" fill="#9B9B9B" fill-rule="nonzero">
            <g id="BG">
                <g id="Dropdown--Long-Copy" transform="translate(80.000000, 226.000000)">
                    <g id="ic_remove_red_eye_black_24px-copy-5" transform="translate(229.000000, 13.030303)">
                        <path d="M10,-2.84217094e-14 C5.45454545,-2.84217094e-14 1.57272727,2.77015611 0,6.68044077 C1.57272727,10.5907254 5.45454545,13.3608815 10,13.3608815 C14.5454545,13.3608815 18.4272727,10.5907254 20,6.68044077 C18.4272727,2.77015611 14.5454545,-2.84217094e-14 10,-2.84217094e-14 Z M10,11.134068 C7.49090909,11.134068 5.45454545,9.13884298 5.45454545,6.68044077 C5.45454545,4.22203857 7.49090909,2.22681359 10,2.22681359 C12.5090909,2.22681359 14.5454545,4.22203857 14.5454545,6.68044077 C14.5454545,9.13884298 12.5090909,11.134068 10,11.134068 Z M10,4.00826446 C8.49090909,4.00826446 7.27272727,5.20183655 7.27272727,6.68044077 C7.27272727,8.159045 8.49090909,9.35261708 10,9.35261708 C11.5090909,9.35261708 12.7272727,8.159045 12.7272727,6.68044077 C12.7272727,5.20183655 11.5090909,4.00826446 10,4.00826446 Z" id="Shape"></path>
                    </g>
                </g>
            </g>
        </g>
    </g>
</svg>