<?xml version="1.0" encoding="UTF-8"?>
<svg width="268px" height="80px" viewBox="0 0 268 80" version="1.1" xmlns="http://www.w3.org/2000/svg" xmlns:xlink="http://www.w3.org/1999/xlink">
    <!-- Generator: sketchtool 48.1 (47250) - http://www.bohemiancoding.com/sketch -->
    <title>D4F8ED40-4868-4BE7-848A-586E8A66ECA1</title>
    <desc>Created with sketchtool.</desc>
    <defs>
        <polygon id="path-1" points="0.290454852 0.0203902439 24.5549427 0.0203902439 24.5549427 37.4660729 0.290454852 37.4660729"></polygon>
        <polygon id="path-3" points="0.212121509 0.0203902439 8.18367623 0.0203902439 8.18367623 37.4849243 0.212121509 37.4849243"></polygon>
        <polygon id="path-5" points="0.115888614 0.0203902439 25.8529114 0.0203902439 25.8529114 37.5033909 0.115888614 37.5033909"></polygon>
        <polygon id="path-7" points="0.331323113 0.133826415 14.7877358 0.133826415 14.7877358 7.74333585 0.331323113 7.74333585"></polygon>
        <polygon id="path-9" points="0 0.374468903 24.5289623 0.374468903 24.5289623 24.9757268 0 24.9757268"></polygon>
    </defs>
    <g id="Solid3" stroke="none" stroke-width="1" fill="none" fill-rule="evenodd" transform="translate(-466.000000, -260.000000)">
        <g id="Modal" transform="translate(306.000000, 164.000000)">
            <g id="Logo" transform="translate(160.000000, 96.000000)">
                <g id="Group-4" transform="translate(114.000000, 0.000000)">
                    <mask id="mask-2" fill="white">
                        <use xlink:href="#path-1"></use>
                    </mask>
                    <g id="Clip-3"></g>
                    <path d="M17.0421058,37.4660729 L17.0421058,22.1295317 C17.0421058,18.3981171 15.3706098,16.5322174 12.4945991,16.5322174 C9.61895889,16.5322174 7.8036624,18.3981171 7.8036624,22.1295317 L7.8036624,37.4660729 L0.290454852,37.4660729 L0.290454852,0.0199670502 L7.8036624,0.0199670502 L7.8036624,13.8641732 C9.51852089,11.139575 12.4330761,9.48681104 15.5681503,9.4610347 C21.2482716,9.4610347 24.5549427,13.3605727 24.5549427,19.6665441 L24.5549427,37.4660729 L17.0421058,37.4660729 Z" id="Fill-2" fill="#FFFFFF" mask="url(#mask-2)"></path>
                </g>
                <g id="Group-7" transform="translate(145.000000, 0.000000)">
                    <mask id="mask-4" fill="white">
                        <use xlink:href="#path-3"></use>
                    </mask>
                    <g id="Clip-6"></g>
                    <path d="M0.411242264,37.4660729 L0.411242264,9.98348661 L8.02041962,9.98348661 L8.02041962,37.4849243 L0.411242264,37.4849243 L0.411242264,37.4660729 Z M0.212121509,6.94226249 L8.18367623,6.94226249 L8.18367623,0.0199670502 L0.212121509,0.0199670502 L0.212121509,6.94226249 Z" id="Fill-5" fill="#FFFFFF" mask="url(#mask-4)"></path>
                </g>
                <path d="M179.259432,36.9815367 L179.259432,21.6477546 C179.259432,17.9170113 177.536887,16.0514473 174.57408,16.0514473 C171.611272,16.0514473 169.740568,17.9170113 169.740568,21.6477546 L169.740568,36.9815367 L162,36.9815367 L162,9.50389461 L169.740568,9.50389461 L169.740568,13.402731 C171.510081,10.6809309 174.511456,9.02961823 177.740415,9 C183.592714,9 187,12.8988364 187,19.2040581 L187,37 L179.259432,37 L179.259432,36.9815367 Z" id="Fill-8" fill="#FFFFFF"></path>
                <g id="Group-12" transform="translate(192.000000, 0.000000)">
                    <mask id="mask-6" fill="white">
                        <use xlink:href="#path-5"></use>
                    </mask>
                    <g id="Clip-11"></g>
                    <polygon id="Fill-10" fill="#FFFFFF" mask="url(#mask-6)" points="17.3339446 37.4660729 10.3854657 26.2714443 7.75061861 29.1449298 7.75061861 37.5033909 0.115888614 37.5033909 0.115888614 0.0199670502 7.6601853 0.0199670502 7.6601853 19.9839394 16.4858066 9.98348661 25.5097858 9.98348661 15.3849764 20.8049353 25.8529114 37.4849243 17.3339446 37.4849243"></polygon>
                </g>
                <path d="M101.341595,79.984064 C91.3694826,80.1349837 83.1595655,72.4135465 83.0036495,62.7375879 C83.0005848,62.5372291 83.0009679,62.3372419 83.0047988,62.1372547 L83.0047988,62.046926 C82.7764795,52.3126069 90.7239826,44.241378 100.75624,44.0198309 C101.031679,44.0135116 101.307501,44.0135116 101.58294,44.0198309 C106.86493,43.7785824 111.999815,45.7476009 115.683954,49.4280337 L110.686597,55.0343652 C108.286179,52.6181634 105.003515,51.2134209 101.546163,51.1223487 C95.698738,51.2338657 91.0515212,55.9238991 91.166447,61.5982559 C91.1687455,61.7120032 91.1733426,61.8253789 91.1794719,61.9387545 L91.1794719,62.046926 C91.1794719,67.9959863 95.4152544,72.8637034 101.546163,72.8637034 C105.126103,72.8611014 108.547444,71.4262493 111.002259,68.8974154 L116,73.800818 C112.350339,77.935125 106.946527,80.2145325 101.341595,79.984064" id="Fill-13" fill="#FFFFFF"></path>
                <polygon id="Fill-15" fill="#FFFFFF" points="120 79 120 44 145.751688 44 145.751688 50.8583616 127.466552 50.8583616 127.466552 57.9530373 143.552352 57.9530373 143.552352 64.7742637 127.466552 64.7742637 127.466552 72.0508638 146 72.0508638 146 78.9088503 120 78.9088503"></polygon>
                <path d="M175.219857,55.902372 C175.219857,52.6185849 172.948425,50.9129013 169.216362,50.9129013 L161.626211,50.9129013 L161.626211,60.9464666 L169.360604,60.9464666 C173.07445,60.9464666 175.202012,58.9504538 175.202012,56.0112454 L175.202012,55.902372 L175.219857,55.902372 Z M175.075615,78.9094592 L167.629706,67.7325359 L161.626211,67.7325359 L161.626211,78.9094592 L154,78.9094592 L154,44 L169.865449,44 C178.05041,44 182.954621,48.3362302 182.954621,55.521128 L182.954621,55.648334 C183.19775,60.5468899 180.15641,65.00434 175.526184,66.5349282 L184,79 L175.075615,79 L175.075615,78.9094592 Z" id="Fill-17" fill="#FFFFFF"></path>
                <path d="M206.403766,79.9902711 C196.397852,80.1412168 188.159722,72.4184477 188.003662,62.7408201 C188.000587,62.5404267 188.000587,62.340405 188.004815,62.1403833 L188.004815,62.050039 C187.775722,52.3140408 195.750164,44.2414196 205.816426,44.0198343 C206.092799,44.0135139 206.369555,44.0135139 206.645928,44.0198343 C211.945822,43.7785442 217.097728,45.7479024 220.794354,49.4289701 L215.724322,55.0544861 C213.315384,52.6378676 210.021977,51.232511 206.552907,51.1417949 C200.685661,51.2533311 196.022692,55.9441735 196.138008,61.6191373 C196.140314,61.7329043 196.144927,61.8462995 196.150692,61.9600664 L196.150692,62.0682566 C196.150692,68.0183431 200.401217,72.8865281 206.552907,72.8865281 C210.139983,72.8456315 213.551396,71.3785582 215.985319,68.8295833 L221,73.7338317 C217.377176,77.865134 212.001558,80.1694727 206.403766,79.9902711" id="Fill-19" fill="#FFFFFF"></path>
                <path d="M240.916144,53.169662 L236.140564,64.4333539 L245.672875,64.4333539 L240.916144,53.169662 Z M251.791695,78.9825063 L248.527453,71.2022885 L233.342531,71.2022885 L230.059056,79 L222,79 L237.33417,44 L244.610054,44 L260,78.9825063 L251.735919,78.9825063 L251.791695,78.9825063 Z" id="Fill-21" fill="#FFFFFF"></path>
                <g id="Group-25" transform="translate(253.000000, 44.000000)">
                    <mask id="mask-8" fill="white">
                        <use xlink:href="#path-7"></use>
                    </mask>
                    <g id="Clip-24"></g>
                    <path d="M11.2018656,5.97171321 L11.0699434,5.97171321 L8.88058019,2.32801509 L8.88058019,7.72299623 L7.61622877,7.72299623 L7.61622877,0.133826415 L9.06970755,0.133826415 L11.220934,3.73684528 L13.3721604,0.133826415 L14.7878915,0.133826415 L14.7878915,7.72299623 L13.4667241,7.72299623 L13.4667241,2.32801509 L11.2018656,5.97171321 Z M3.84185377,7.72299623 L2.52029717,7.72299623 L2.52029717,1.48246792 L0.331323113,1.48246792 L0.331323113,0.153750943 L5.99308019,0.153750943 L5.99308019,1.48246792 L3.84185377,1.48246792 L3.84185377,7.74333585 L3.84185377,7.72299623 Z" id="Fill-23" fill="#FFFFFF" mask="url(#mask-8)"></path>
                </g>
                <path d="M36.0349046,5 C29.419419,5 24,10.3490814 24,16.9647544 C24,23.5804274 29.3489298,29 36.0349046,29 C42.6507651,29 47.99932,23.6509186 47.99932,16.9647544 C48.0698092,10.4191976 42.6507651,5 36.0349046,5" id="Fill-26" fill="#FFFFFF"></path>
                <path d="M51.999659,51 C45.3643101,51 40,56.3490814 40,62.9647544 C40,69.5808024 45.3643101,75 51.999659,75 C58.6350079,75 63.999318,69.6509186 63.999318,62.9647544 C64.0700148,56.3490814 58.6350079,51 51.999659,51" id="Fill-28" fill="#FFFFFF"></path>
                <g id="Group-32" transform="translate(0.000000, 23.000000)">
                    <mask id="mask-10" fill="white">
                        <use xlink:href="#path-9"></use>
                    </mask>
                    <g id="Clip-31"></g>
                    <path d="M12.2644619,0.374468903 C5.48305031,0.374468903 -3.84346611e-05,5.85755765 -3.84346611e-05,12.6389693 C-3.84346611e-05,19.4203809 5.48305031,24.9757268 12.2644619,24.9757268 C19.0462579,24.9757268 24.5289623,19.492638 24.5289623,12.6389693 C24.5289623,5.85755765 19.0462579,0.374468903 12.2644619,0.374468903" id="Fill-30" fill="#FFFFFF" mask="url(#mask-10)"></path>
                </g>
                <path d="M61,23 C54.3644626,23 49,28.3490814 49,34.9647544 C49,41.5804274 54.3644626,47 61,47 C67.6351614,47 73,41.6509186 73,34.9647544 C73,28.3490814 67.6351614,23 61,23" id="Fill-33" fill="#FFFFFF"></path>
                <path d="M21,51 C14.3648386,51 9,56.3490814 9,62.9647544 C9,69.5808024 14.3648386,75 21,75 C27.6355374,75 33,69.6509186 33,62.9647544 C33,56.3490814 27.6355374,51 21,51" id="Fill-35" fill="#FFFFFF"></path>
                <polygon id="Fill-1" fill="#FFFFFF" points="98.3454468 8.0946757 98.3454468 36 90.6545532 36 90.6545532 8.0946757 80 8.0946757 80 1 109 1 109 8.0946757"></polygon>
            </g>
        </g>
    </g>
</svg>