<?xml version="1.0" encoding="UTF-8"?>
<svg width="467px" height="424px" viewBox="0 0 467 424" version="1.1" xmlns="http://www.w3.org/2000/svg" xmlns:xlink="http://www.w3.org/1999/xlink">
    <!-- Generator: sketchtool 48.1 (47250) - http://www.bohemiancoding.com/sketch -->
    <title>BDE890B5-8F48-4813-B393-A80115199D37</title>
    <desc>Created with sketchtool.</desc>
    <defs></defs>
    <g id="Dot-Pattern" stroke="none" stroke-width="1" fill="none" fill-rule="evenodd" opacity="0.2">
        <g id="Pattern">
            <path d="M198.5329,2.1319 C208.2999,2.1319 216.2169,10.0489 216.2169,19.8159 C216.2169,29.5829 208.2999,37.4999 198.5329,37.4999 C188.7659,37.4999 180.8489,29.5829 180.8489,19.8159 C180.8489,10.0489 188.7659,2.1319 198.5329,2.1319" id="Fill-1" fill="#FFAA00"></path>
            <path d="M109.1741,2.1319 C118.9411,2.1319 126.8581,10.0489 126.8581,19.8159 C126.8581,29.5829 118.9411,37.4999 109.1741,37.4999 C99.4071,37.4999 91.4901,29.5829 91.4901,19.8159 C91.4901,10.0489 99.4071,2.1319 109.1741,2.1319" id="Fill-3" fill="#F1F2F2"></path>
            <path d="M19.8157,4.2642 C11.2407,4.2642 4.2637,11.2412 4.2637,19.8162 C4.2637,28.3912 11.2407,35.3682 19.8157,35.3682 C28.3907,35.3682 35.3677,28.3912 35.3677,19.8162 C35.3677,11.2412 28.3907,4.2642 19.8157,4.2642 M19.8157,39.6322 C8.8897,39.6322 0.0007,30.7432 0.0007,19.8162 C0.0007,8.8892 8.8897,0.0002 19.8157,0.0002 C30.7417,0.0002 39.6317,8.8892 39.6317,19.8162 C39.6317,30.7432 30.7417,39.6322 19.8157,39.6322" id="Fill-5" fill="#FFFFFF"></path>
            <path d="M445.4865,60.0743 C455.2535,60.0743 463.1715,67.9913 463.1715,77.7583 C463.1715,87.5253 455.2535,95.4423 445.4865,95.4423 C435.7195,95.4423 427.8025,87.5253 427.8025,77.7583 C427.8025,67.9913 435.7195,60.0743 445.4865,60.0743" id="Fill-7" fill="#FFAA00"></path>
            <path d="M356.1281,60.0743 C365.8951,60.0743 373.8121,67.9913 373.8121,77.7583 C373.8121,87.5253 365.8951,95.4423 356.1281,95.4423 C346.3611,95.4423 338.4441,87.5253 338.4441,77.7583 C338.4441,67.9913 346.3611,60.0743 356.1281,60.0743" id="Fill-9" fill="#F1F2F2"></path>
            <path d="M266.7697,62.2066 C258.1947,62.2066 251.2177,69.1836 251.2177,77.7586 C251.2177,86.3336 258.1947,93.3106 266.7697,93.3106 C275.3447,93.3106 282.3217,86.3336 282.3217,77.7586 C282.3217,69.1836 275.3447,62.2066 266.7697,62.2066 M266.7697,97.5746 C255.8427,97.5746 246.9547,88.6856 246.9547,77.7586 C246.9547,66.8316 255.8427,57.9426 266.7697,57.9426 C277.6967,57.9426 286.5847,66.8316 286.5847,77.7586 C286.5847,88.6856 277.6967,97.5746 266.7697,97.5746" id="Fill-11" fill="#EF4136"></path>
            <path d="M198.5329,135.0396 C208.2999,135.0396 216.2169,142.9566 216.2169,152.7236 C216.2169,162.4896 208.2999,170.4076 198.5329,170.4076 C188.7659,170.4076 180.8489,162.4896 180.8489,152.7236 C180.8489,142.9566 188.7659,135.0396 198.5329,135.0396" id="Fill-13" fill="#0A4BB7"></path>
            <path d="M109.1741,135.0396 C118.9411,135.0396 126.8581,142.9566 126.8581,152.7236 C126.8581,162.4896 118.9411,170.4076 109.1741,170.4076 C99.4071,170.4076 91.4901,162.4896 91.4901,152.7236 C91.4901,142.9566 99.4071,135.0396 109.1741,135.0396" id="Fill-15" fill="#FFAA00"></path>
            <path d="M19.8157,137.1714 C11.2407,137.1714 4.2637,144.1484 4.2637,152.7234 C4.2637,161.2984 11.2407,168.2754 19.8157,168.2754 C28.3907,168.2754 35.3677,161.2984 35.3677,152.7234 C35.3677,144.1484 28.3907,137.1714 19.8157,137.1714 M19.8157,172.5394 C8.8897,172.5394 0.0007,163.6504 0.0007,152.7234 C0.0007,141.7964 8.8897,132.9074 19.8157,132.9074 C30.7417,132.9074 39.6317,141.7964 39.6317,152.7234 C39.6317,163.6504 30.7417,172.5394 19.8157,172.5394" id="Fill-17" fill="#EF4136"></path>
            <path d="M445.4865,192.982 C455.2535,192.982 463.1715,200.899 463.1715,210.666 C463.1715,220.432 455.2535,228.35 445.4865,228.35 C435.7195,228.35 427.8025,220.432 427.8025,210.666 C427.8025,200.899 435.7195,192.982 445.4865,192.982" id="Fill-19" fill="#FFFFFF"></path>
            <path d="M356.1281,192.982 C365.8951,192.982 373.8121,200.899 373.8121,210.666 C373.8121,220.432 365.8951,228.35 356.1281,228.35 C346.3611,228.35 338.4441,220.432 338.4441,210.666 C338.4441,200.899 346.3611,192.982 356.1281,192.982" id="Fill-21" fill="#9BBEEB"></path>
            <path d="M266.7697,195.1143 C258.1947,195.1143 251.2177,202.0913 251.2177,210.6663 C251.2177,219.2403 258.1947,226.2173 266.7697,226.2173 C275.3447,226.2173 282.3217,219.2403 282.3217,210.6663 C282.3217,202.0913 275.3447,195.1143 266.7697,195.1143 M266.7697,230.4823 C255.8427,230.4823 246.9547,221.5923 246.9547,210.6663 C246.9547,199.7393 255.8427,190.8493 266.7697,190.8493 C277.6967,190.8493 286.5847,199.7393 286.5847,210.6663 C286.5847,221.5923 277.6967,230.4823 266.7697,230.4823" id="Fill-23" fill="#FFFFFF"></path>
            <path d="M198.5329,267.9468 C208.2999,267.9468 216.2169,275.8638 216.2169,285.6308 C216.2169,295.3968 208.2999,303.3148 198.5329,303.3148 C188.7659,303.3148 180.8489,295.3968 180.8489,285.6308 C180.8489,275.8638 188.7659,267.9468 198.5329,267.9468" id="Fill-25" fill="#FFAA00"></path>
            <path d="M109.1741,267.9468 C118.9411,267.9468 126.8581,275.8638 126.8581,285.6308 C126.8581,295.3968 118.9411,303.3148 109.1741,303.3148 C99.4071,303.3148 91.4901,295.3968 91.4901,285.6308 C91.4901,275.8638 99.4071,267.9468 109.1741,267.9468" id="Fill-27" fill="#F1F2F2"></path>
            <path d="M19.8157,270.0787 C11.2407,270.0787 4.2637,277.0557 4.2637,285.6307 C4.2637,294.2057 11.2407,301.1827 19.8157,301.1827 C28.3907,301.1827 35.3677,294.2057 35.3677,285.6307 C35.3677,277.0557 28.3907,270.0787 19.8157,270.0787 M19.8157,305.4467 C8.8897,305.4467 0.0007,296.5577 0.0007,285.6307 C0.0007,274.7037 8.8897,265.8147 19.8157,265.8147 C30.7417,265.8147 39.6317,274.7037 39.6317,285.6307 C39.6317,296.5577 30.7417,305.4467 19.8157,305.4467" id="Fill-29" fill="#FFFFFF"></path>
            <path d="M445.4865,325.8892 C455.2535,325.8892 463.1715,333.8072 463.1715,343.5742 C463.1715,353.3402 455.2535,361.2572 445.4865,361.2572 C435.7195,361.2572 427.8025,353.3402 427.8025,343.5742 C427.8025,333.8072 435.7195,325.8892 445.4865,325.8892" id="Fill-31" fill="#FFFFFF"></path>
            <path d="M356.1281,325.8892 C365.8951,325.8892 373.8121,333.8072 373.8121,343.5742 C373.8121,353.3402 365.8951,361.2572 356.1281,361.2572 C346.3611,361.2572 338.4441,353.3402 338.4441,343.5742 C338.4441,333.8072 346.3611,325.8892 356.1281,325.8892" id="Fill-33" fill="#F1F2F2"></path>
            <path d="M266.7697,328.022 C258.1947,328.022 251.2177,334.999 251.2177,343.574 C251.2177,352.149 258.1947,359.126 266.7697,359.126 C275.3447,359.126 282.3217,352.149 282.3217,343.574 C282.3217,334.999 275.3447,328.022 266.7697,328.022 M266.7697,363.389 C255.8427,363.389 246.9547,354.501 246.9547,343.574 C246.9547,332.647 255.8427,323.757 266.7697,323.757 C277.6967,323.757 286.5847,332.647 286.5847,343.574 C286.5847,354.501 277.6967,363.389 266.7697,363.389" id="Fill-35" fill="#FFFFFF"></path>
            <path d="M200.6018,386.396 C210.3688,386.396 218.2858,394.313 218.2858,404.08 C218.2858,413.846 210.3688,421.764 200.6018,421.764 C190.8348,421.764 182.9178,413.846 182.9178,404.08 C182.9178,394.313 190.8348,386.396 200.6018,386.396" id="Fill-37" fill="#0A4BB7"></path>
            <path d="M111.2429,386.396 C121.0099,386.396 128.9269,394.313 128.9269,404.08 C128.9269,413.846 121.0099,421.764 111.2429,421.764 C101.4759,421.764 93.5589,413.846 93.5589,404.08 C93.5589,394.313 101.4759,386.396 111.2429,386.396" id="Fill-39" fill="#9BBEEB"></path>
            <path d="M21.8845,388.5279 C13.3095,388.5279 6.3325,395.5049 6.3325,404.0799 C6.3325,412.6549 13.3095,419.6319 21.8845,419.6319 C30.4595,419.6319 37.4365,412.6549 37.4365,404.0799 C37.4365,395.5049 30.4595,388.5279 21.8845,388.5279 M21.8845,423.8959 C10.9585,423.8959 2.0695,415.0069 2.0695,404.0799 C2.0695,393.1529 10.9585,384.2639 21.8845,384.2639 C32.8105,384.2639 41.7005,393.1529 41.7005,404.0799 C41.7005,415.0069 32.8105,423.8959 21.8845,423.8959" id="Fill-41" fill="#EF4136"></path>
            <path d="M19.5193,200.8418 C9.7523,200.8418 1.8353,208.7588 1.8353,218.5258 C1.8353,228.2928 9.7523,236.2098 19.5193,236.2098 C29.2863,236.2098 37.2033,228.2928 37.2033,218.5258 C37.2033,208.7588 29.2863,200.8418 19.5193,200.8418" id="Fill-43" fill="#0A4BB7"></path>
            <path d="M108.8777,200.8418 C99.1107,200.8418 91.1937,208.7588 91.1937,218.5258 C91.1937,228.2928 99.1107,236.2098 108.8777,236.2098 C118.6447,236.2098 126.5617,228.2928 126.5617,218.5258 C126.5617,208.7588 118.6447,200.8418 108.8777,200.8418" id="Fill-45" fill="#9BBEEB"></path>
            <path d="M182.6838,218.5259 C182.6838,227.1009 189.6608,234.0779 198.2358,234.0779 C206.8108,234.0779 213.7878,227.1009 213.7878,218.5259 C213.7878,209.9509 206.8108,202.9739 198.2358,202.9739 C189.6608,202.9739 182.6838,209.9509 182.6838,218.5259 M178.4208,218.5259 C178.4208,207.5989 187.3098,198.7099 198.2358,198.7099 C209.1628,198.7099 218.0518,207.5989 218.0518,218.5259 C218.0518,229.4529 209.1628,238.3419 198.2358,238.3419 C187.3098,238.3419 178.4208,229.4529 178.4208,218.5259" id="Fill-47" fill="#EF4136"></path>
            <path d="M267.7365,126.71 C257.9695,126.71 250.0515,134.627 250.0515,144.394 C250.0515,154.161 257.9695,162.078 267.7365,162.078 C277.5035,162.078 285.4205,154.161 285.4205,144.394 C285.4205,134.627 277.5035,126.71 267.7365,126.71" id="Fill-49" fill="#FFFFFF"></path>
            <path d="M357.0949,126.71 C347.3279,126.71 339.4099,134.627 339.4099,144.394 C339.4099,154.161 347.3279,162.078 357.0949,162.078 C366.8619,162.078 374.7789,154.161 374.7789,144.394 C374.7789,134.627 366.8619,126.71 357.0949,126.71" id="Fill-51" fill="#0A4BB7"></path>
            <path d="M430.9006,144.3941 C430.9006,152.9691 437.8786,159.9461 446.4536,159.9461 C455.0286,159.9461 462.0046,152.9691 462.0046,144.3941 C462.0046,135.8191 455.0286,128.8421 446.4536,128.8421 C437.8786,128.8421 430.9006,135.8191 430.9006,144.3941 M426.6376,144.3941 C426.6376,133.4671 435.5266,124.5781 446.4536,124.5781 C457.3796,124.5781 466.2686,133.4671 466.2686,144.3941 C466.2686,155.3211 457.3796,164.2101 446.4536,164.2101 C435.5266,164.2101 426.6376,155.3211 426.6376,144.3941" id="Fill-53" fill="#FFFFFF"></path>
        </g>
    </g>
</svg>